# This file uses centimeters as units for non-parametric coordinates.

v -1.042301 0.051968 0.373607
v -0.520893 0.051968 0.373607
v 0.520893 0.051968 0.373607
v 1.042301 0.051968 0.373607
v -0.859898 3.984827 0.373607
v -0.429737 3.984827 0.373607
v 0.429737 3.984827 0.373607
v 0.859898 3.984827 0.373607
v -1.407106 4.722613 0.373607
v -0.429737 4.722613 0.373607
v 0.429737 4.722613 0.373607
v 1.407106 4.722613 0.373607
v -1.164047 6.627295 0.373607
v -0.429737 7.016261 0.373607
v 0.429737 7.016261 0.373607
v 1.164047 6.627295 0.373607
v -1.164047 6.627295 -0.373607
v -0.429737 7.016261 -0.373608
v 0.429737 7.016261 -0.373608
v 1.164047 6.627295 -0.373607
v -1.407106 4.722612 -0.373607
v -0.429737 4.722612 -0.373608
v 0.429737 4.722612 -0.373608
v 1.407106 4.722612 -0.373607
v -0.859898 3.984827 -0.373607
v -0.429737 3.984827 -0.373608
v 0.429737 3.984827 -0.373608
v 0.859898 3.984827 -0.373607
v -1.042301 0.051968 -0.373607
v -0.520893 0.051968 -0.373608
v 0.520893 0.051968 -0.373608
v 1.042301 0.051968 -0.373607
v -1.553317 5.688846 0.373607
v -1.553317 5.688846 -0.373607
v -0.429737 5.688845 -0.373608
v 0.429737 5.688845 -0.373608
v 1.553317 5.688846 -0.373607
v 1.553317 5.688846 0.373607
v 0.429737 5.688846 0.373607
v -0.429737 5.688846 0.373607
v -0.920741 2.672963 0.373607
v -0.920741 2.672963 -0.373607
v -0.429737 2.672963 -0.373608
v 0.429737 2.672963 -0.373608
v 0.920741 2.672963 -0.373607
v 0.920741 2.672963 0.373607
v 0.429737 2.672963 0.373607
v -0.429737 2.672963 0.373607
v 0.000000 1.357781 0.373607
v -0.000000 2.672963 0.373607
v -0.000000 3.984827 0.373607
v -0.000000 4.722613 0.373607
v -0.000000 5.688846 0.373607
v -0.000000 7.016261 0.373607
v -0.000000 7.016261 -0.373608
v -0.000000 5.688845 -0.373608
v -0.000000 4.722612 -0.373608
v -0.000000 3.984827 -0.373608
v -0.000000 2.672963 -0.373608
v 0.000000 1.357781 -0.373608
v -0.981521 1.362466 0.373607
v -0.981521 1.362465 -0.373607
v -0.475315 1.362465 -0.373608
v 0.475315 1.362465 -0.373608
v 0.981521 1.362465 -0.373607
v 0.981521 1.362466 0.373607
v 0.475315 1.362466 0.373607
v -0.475315 1.362466 0.373607
v -1.900659 2.541820 0.150177
v -1.900659 2.541820 -0.150177
v -2.201581 2.975539 0.150177
v -2.201581 2.975539 -0.150177
v 1.900659 2.541820 -0.150177
v 1.900659 2.541820 0.150177
v 2.201581 2.975539 -0.150177
v 2.201581 2.975539 0.150177
v -0.260447 0.704875 0.373607
v -0.260447 0.704875 -0.373608
v 0.260447 0.704875 0.373607
v 0.260447 0.704875 -0.373608
vt 0.953546 0.082431
vt 0.824780 0.001387
vt 0.245510 0.136253
vt 0.193971 0.134491
vt 0.293775 0.137056
vt 0.343285 0.003666
vt 0.664518 0.000002
vt 0.393613 0.136550
vt 0.342048 0.137241
vt 0.203363 0.403492
vt 0.247236 0.403895
vt 0.246510 0.479151
vt 0.985801 0.543480
vt 0.291079 0.404325
vt 0.290343 0.479580
vt 0.334923 0.404765
vt 0.378797 0.405230
vt 0.562552 0.506432
vt 0.334176 0.480012
vt 0.245555 0.577690
vt 0.130970 0.576562
vt 0.289381 0.578120
vt 0.447793 0.579660
vt 0.333208 0.578547
vt 0.954366 0.778079
vt 0.244232 0.713061
vt 0.809035 0.787499
vt 0.884198 0.748377
vt 0.764665 0.863377
vt 0.765215 0.787183
vt 0.720844 0.863061
vt 0.407163 0.674974
vt 0.646804 0.746662
vt 0.721395 0.786866
vt 0.924582 0.652970
vt 0.810011 0.652141
vt 0.810721 0.553614
vt 0.910381 0.554335
vt 0.766192 0.651825
vt 0.766903 0.553297
vt 0.722372 0.651508
vt 0.607802 0.650680
vt 0.623425 0.552259
vt 0.723086 0.552979
vt 0.811264 0.478382
vt 0.149464 0.457840
vt 0.767446 0.478071
vt 0.431652 0.460558
vt 0.723629 0.477744
vt 0.869718 0.211577
vt 0.818044 0.211007
vt 0.824308 0.077492
vt 0.877466 0.077998
vt 0.769502 0.210042
vt 0.720952 0.210250
vt 0.669283 0.209979
vt 0.663730 0.076286
vt 0.716909 0.076656
vt 0.070534 0.238291
vt 0.095767 0.255473
vt 0.065802 0.299686
vt 0.044227 0.321229
vt 0.812195 0.344624
vt 0.190642 0.193045
vt 0.768428 0.344257
vt 0.565949 0.459257
vt 0.724655 0.343954
vt 0.489262 0.259278
vt 0.583112 0.357328
vt 0.539480 0.326091
vt 0.518376 0.304054
vt 0.336376 0.270769
vt 0.386556 0.271087
vt 0.248435 0.269887
vt 0.292405 0.270394
vt 0.198255 0.269201
vt 0.618893 0.431597
vt 0.945820 0.215984
vt 0.288061 0.713489
vt 0.331889 0.713916
vt 0.000844 0.599511
vt 0.717651 0.000555
vt 0.537211 0.679367
vt 0.610652 0.813736
vt 1.000000 0.642114
vt 0.169732 0.672655
vt 0.433846 0.480988
vt 0.146839 0.478174
vt 0.396333 0.002096
vt 0.194062 0.000000
vt 0.844214 0.855088
vt 0.247063 0.002682
vt 0.587588 0.079471
vt 0.001687 0.742871
vt 0.000000 0.456152
vt 0.877982 0.001713
vt 0.077039 0.599063
vt 0.077882 0.742423
vt 0.076195 0.455704
vt 0.916656 0.433754
vt 0.679769 0.477424
vt 0.855123 0.478697
vt 0.270436 0.070399
vt 0.000422 0.527832
vt 0.076617 0.527383
vt 0.796938 0.143696
vt 0.318502 0.070880
vt 0.001266 0.671191
vt 0.077461 0.670743
vt 0.743169 0.143300
vt 0.532549 0.638737
vt 0.994751 0.682672
vt 0.971909 0.509391
vt 0.548169 0.540317
vt 0.576214 0.775348
vt 0.685243 0.853940
vt 0.808485 0.863693
vt 0.919378 0.815966
vt 0.674630 0.343618
vt 0.493001 0.229035
vt 0.092731 0.225112
vt 0.593134 0.213146
vt 0.862211 0.345051
vt 0.395472 0.195045
vt 0.598550 0.346783
vt 0.015172 0.453859
vt 0.938195 0.349534
vt 0.543823 0.287413
vt 0.514855 0.242517
vt 0.040787 0.282507
vt 0.000000 0.351568
vn 0.000000 -0.000000 1.000000
vn 0.000000 -0.000000 1.000000
vn 0.000000 -0.000000 1.000000
vn 0.000000 -0.000000 1.000000
vn -0.000000 0.000000 1.000000
vn 0.000000 0.000000 1.000000
vn -0.000000 -0.000000 1.000000
vn -0.000000 -0.000000 1.000000
vn -0.000000 -0.000000 1.000000
vn -0.000000 -0.000000 1.000000
vn 0.000000 0.000000 1.000000
vn 0.000000 0.000000 1.000000
vn 0.000000 0.000000 1.000000
vn 0.000000 0.000000 1.000000
vn -0.000000 -0.000000 1.000000
vn -0.000000 -0.000000 1.000000
vn -0.000000 0.000000 1.000000
vn -0.000000 0.000000 1.000000
vn -0.000000 0.000000 1.000000
vn -0.000000 0.000000 1.000000
vn 0.000000 -0.000000 1.000000
vn 0.000000 -0.000000 1.000000
vn 0.000000 -0.000000 1.000000
vn -0.000000 -0.000000 1.000000
vn -0.000000 -0.000000 1.000000
vn -0.468088 0.883682 0.000000
vn -0.316924 0.948451 0.000000
vn -0.316924 0.948451 0.000000
vn -0.468088 0.883682 0.000000
vn 0.000000 1.000000 0.000000
vn 0.000000 1.000000 0.000000
vn 0.316924 0.948451 0.000000
vn 0.468088 0.883682 0.000000
vn 0.468088 0.883682 0.000000
vn 0.316924 0.948451 0.000000
vn -0.000000 0.000000 -1.000000
vn -0.000000 0.000000 -1.000000
vn -0.000000 -0.000000 -1.000000
vn -0.000000 -0.000000 -1.000000
vn 0.000000 0.000000 -1.000000
vn -0.000000 0.000000 -1.000000
vn 0.000000 0.000000 -1.000000
vn 0.000000 0.000000 -1.000000
vn 0.000000 -0.000000 -1.000000
vn 0.000000 -0.000000 -1.000000
vn -0.000000 -0.000000 -1.000000
vn -0.000000 -0.000000 -1.000000
vn -0.000000 0.000000 -1.000000
vn 0.000000 -0.000000 -1.000000
vn 0.000000 -0.000000 -1.000000
vn -0.000000 0.000000 -1.000000
vn -0.000000 0.000000 -1.000000
vn -0.000000 0.000000 -1.000000
vn -0.000000 0.000000 -1.000000
vn -0.000000 -0.000000 -1.000000
vn 0.000000 -0.000000 -1.000000
vn 0.000000 0.000000 -1.000000
vn 0.000000 0.000000 -1.000000
vn 0.000000 0.000000 -1.000000
vn 0.000000 0.000000 -1.000000
vn 0.000000 -1.000000 0.000000
vn 0.640973 -0.767564 0.000000
vn 0.640973 -0.767564 0.000000
vn 0.000000 -1.000000 0.000000
vn 0.928828 -0.370512 0.000000
vn 0.928828 -0.370513 0.000000
vn 0.000000 -1.000000 0.000000
vn 0.000000 -1.000000 0.000000
vn -0.640973 -0.767564 0.000000
vn 0.000000 -1.000000 0.000000
vn 0.000000 -1.000000 0.000000
vn -0.640973 -0.767564 0.000000
vn 0.998926 0.046329 -0.000000
vn 0.998926 0.046329 -0.000000
vn 0.998926 0.046329 -0.000000
vn 0.998926 0.046329 -0.000000
vn 0.803192 -0.595720 0.000000
vn 0.803192 -0.595720 0.000000
vn 0.926246 -0.376919 0.000000
vn 0.926246 -0.376919 0.000000
vn 0.991956 0.126585 0.000000
vn 0.991956 0.126585 0.000000
vn -0.998926 0.046329 -0.000000
vn -0.998926 0.046329 -0.000000
vn -0.998926 0.046329 -0.000000
vn -0.998926 0.046329 -0.000000
vn -0.803192 -0.595720 0.000000
vn -0.803192 -0.595720 0.000000
vn -0.926246 -0.376919 0.000000
vn -0.926246 -0.376919 0.000000
vn -0.991956 0.126585 0.000000
vn -0.991956 0.126585 0.000000
vn -0.923687 0.383147 0.000000
vn -0.923687 0.383147 0.000000
vn -0.000000 0.000000 -1.000000
vn -0.000000 0.000000 -1.000000
vn -0.000000 0.000000 -1.000000
vn 0.000000 0.000000 -1.000000
vn 0.000000 0.000000 -1.000000
vn 0.923687 0.383147 0.000000
vn 0.923687 0.383147 0.000000
vn -0.000000 -0.000000 1.000000
vn -0.000000 -0.000000 1.000000
vn 0.000000 -0.000000 1.000000
vn 0.000000 -0.000000 1.000000
vn 0.000000 -0.000000 1.000000
vn -0.821612 -0.570048 0.000000
vn -0.821612 -0.570048 0.000000
vn -0.821612 -0.570048 0.000000
vn -0.821612 -0.570048 0.000000
vn -0.000000 0.000000 -1.000000
vn -0.000000 0.000000 -1.000000
vn -0.000000 -0.000000 -1.000000
vn 0.000000 0.000000 -1.000000
vn 0.000000 0.000000 -1.000000
vn 0.821612 -0.570048 0.000000
vn 0.821612 -0.570048 0.000000
vn 0.821612 -0.570048 0.000000
vn 0.821612 -0.570048 0.000000
vn -0.000000 -0.000000 1.000000
vn -0.000000 -0.000000 1.000000
vn 0.000000 -0.000000 1.000000
vn 0.000000 0.000000 1.000000
vn 0.000000 -0.000000 1.000000
vn 0.000000 0.000000 1.000000
vn -0.000000 -0.000000 -1.000000
vn -0.928828 -0.370512 0.000000
vn -0.928828 -0.370512 0.000000
vn -0.998926 0.046329 0.000000
vn -0.998926 0.046329 0.000000
vn 0.998926 0.046329 0.000000
vn 0.998926 0.046329 0.000000
vn 0.132648 -0.991163 0.000000
vn 0.132648 -0.991163 0.000000
vn 0.132648 -0.991163 0.000000
vn 0.132648 -0.991163 0.000000
vn -0.177385 -0.024397 0.983839
vn -0.177385 -0.024397 0.983839
vn -0.177385 -0.024397 0.983839
vn -0.177385 -0.024397 0.983839
vn -0.601153 0.799134 0.000000
vn -0.601153 0.799134 0.000000
vn -0.601153 0.799134 0.000000
vn -0.601153 0.799134 0.000000
vn -0.177385 -0.024397 -0.983839
vn -0.177385 -0.024397 -0.983839
vn -0.177385 -0.024397 -0.983839
vn -0.177385 -0.024397 -0.983839
vn -0.132648 -0.991163 0.000000
vn -0.132648 -0.991163 0.000000
vn -0.132648 -0.991163 0.000000
vn -0.132648 -0.991163 0.000000
vn 0.177385 -0.024397 -0.983839
vn 0.177385 -0.024397 -0.983839
vn 0.177385 -0.024397 -0.983839
vn 0.177385 -0.024397 -0.983839
vn 0.601153 0.799134 0.000000
vn 0.601153 0.799134 0.000000
vn 0.601153 0.799134 0.000000
vn 0.601153 0.799134 0.000000
vn 0.177385 -0.024397 0.983839
vn 0.177385 -0.024397 0.983839
vn 0.177385 -0.024397 0.983839
vn 0.177385 -0.024397 0.983839
s 1
f 1/90/1 2/92/2 68/3/3 61/4/4
f 2/92/2 77/103/5 49/5/6 68/3/3
f 3/6/7 4/89/8 66/8/9 67/9/10
f 5/10/11 6/11/12 10/12/13 9/88/14
f 6/11/12 51/14/15 52/15/16 10/12/13
f 7/16/17 8/17/18 12/87/19 11/19/20
f 9/88/14 10/12/13 40/20/21 33/21/22
f 10/12/13 52/15/16 53/22/23 40/20/21
f 11/19/20 12/87/19 38/23/24 39/24/25
s 5
f 13/118/26 14/91/27 18/27/28 17/28/29
f 14/117/27 54/29/30 55/30/31 18/27/28
f 15/116/32 16/84/33 20/33/34 19/34/35
s 6
f 34/35/36 35/36/37 22/37/38 21/38/39
f 35/36/37 56/39/40 57/40/41 22/37/38
f 36/41/42 37/42/43 24/43/44 23/44/45
f 21/38/39 22/37/38 26/45/46 25/102/47
f 22/37/38 57/40/41 58/47/48 26/45/46
f 23/44/45 24/43/44 28/101/49 27/49/50
f 62/50/51 63/51/52 30/52/53 29/53/54
f 63/51/52 60/54/55 78/106/56 30/52/53
f 64/55/57 65/56/58 32/57/59 31/58/60
s 10
f 29/53/61 30/52/62 2/2/63 1/96/64
f 77/104/65 78/105/66 60/97/67 49/81/68
f 31/58/69 32/57/70 4/7/71 3/82/72
s 12
f 4/93/73 32/57/74 65/56/75 66/122/76
s 13
f 8/77/77 28/101/78 24/43/79 12/18/80
f 12/114/80 24/43/79 37/42/81 38/111/82
s 14
f 29/53/83 1/1/84 61/78/85 62/50/86
s 15
f 25/102/87 5/100/88 9/113/89 21/38/90
f 21/38/90 9/13/89 33/85/91 34/35/92
f 34/35/92 33/112/91 13/25/93 17/28/94
s 6
f 17/28/95 18/27/96 35/36/37 34/35/36
f 18/27/96 55/30/97 56/39/40 35/36/37
f 19/34/98 20/33/99 37/42/43 36/41/42
s 13
f 38/83/82 37/42/81 20/33/100 16/115/101
s 1
f 39/24/25 38/23/24 16/32/102 15/80/103
f 40/20/21 53/22/23 54/79/104 14/26/105
f 33/21/22 40/20/21 14/26/105 13/86/106
s off
f 70/59/107 69/60/108 71/61/109 72/130/110
s 6
f 25/102/47 26/45/46 43/63/111 42/123/112
f 26/45/46 58/47/48 59/65/113 43/63/111
f 27/49/50 28/101/49 45/119/114 44/67/115
s off
f 74/68/116 73/129/117 75/128/118 76/71/119
s 1
f 47/72/120 46/73/121 8/17/18 7/16/17
f 48/74/122 50/75/123 51/14/15 6/11/12
f 41/76/124 48/74/122 6/11/12 5/10/11
f 67/9/10 49/5/6 79/107/125 3/6/7
f 51/14/15 50/75/123 47/72/120 7/16/17
f 52/15/16 51/14/15 7/16/17 11/19/20
f 53/22/23 52/15/16 11/19/20 39/24/25
f 54/79/104 53/22/23 39/24/25 15/80/103
s 5
f 55/30/31 54/29/30 15/31/32 19/34/35
s 6
f 56/39/40 55/30/97 19/34/98 36/41/42
f 57/40/41 56/39/40 36/41/42 23/44/45
f 58/47/48 57/40/41 23/44/45 27/49/50
f 59/65/113 58/47/48 27/49/50 44/67/115
f 60/54/55 64/55/57 31/58/60 80/110/126
s 10
f 79/108/127 80/109/128 31/98/69 3/94/72
s 14
f 62/50/86 61/78/85 41/127/129 42/123/130
s 6
f 42/123/112 43/63/111 63/51/52 62/50/51
f 43/63/111 59/65/113 60/54/55 63/51/52
f 64/55/57 60/54/55 59/65/113 44/67/115
f 44/67/115 45/119/114 65/56/58 64/55/57
s 12
f 66/122/76 65/56/75 45/119/131 46/125/132
s 1
f 67/9/10 66/8/9 46/73/121 47/72/120
f 50/75/123 49/5/6 67/9/10 47/72/120
f 68/3/3 49/5/6 50/75/123 48/74/122
f 61/4/4 68/3/3 48/74/122 41/76/124
s off
f 42/64/133 41/76/134 69/60/135 70/121/136
f 41/76/137 5/10/138 71/61/139 69/60/140
f 5/10/141 25/46/142 72/62/143 71/61/144
f 25/46/145 42/126/146 70/131/147 72/62/148
f 46/73/149 45/124/150 73/120/151 74/68/152
f 45/66/153 28/48/154 75/70/155 73/69/156
f 28/48/157 8/17/158 76/71/159 75/70/160
f 8/17/161 46/73/162 74/68/163 76/71/164
s 10
f 30/99/62 78/105/66 77/104/65 2/95/63
f 49/81/68 60/97/67 80/109/128 79/108/127
